<mxfile host="app.diagrams.net" modified="2024-06-20T21:12:13.848Z" agent="Mozilla/5.0 (Windows NT 10.0; Win64; x64; rv:127.0) Gecko/20100101 Firefox/127.0" etag="rzycjw7Vh4EmZ122p5ek" version="24.5.5" type="device">
  <diagram id="C5RBs43oDa-KdzZeNtuy" name="Page-1">
    <mxGraphModel dx="1932" dy="558" grid="1" gridSize="10" guides="1" tooltips="1" connect="1" arrows="1" fold="1" page="1" pageScale="1" pageWidth="827" pageHeight="1169" math="0" shadow="0">
      <root>
        <mxCell id="WIyWlLk6GJQsqaUBKTNV-0" />
        <mxCell id="WIyWlLk6GJQsqaUBKTNV-1" parent="WIyWlLk6GJQsqaUBKTNV-0" />
        <mxCell id="sIy3QoAhm_caEG3YGeSg-0" value="Festa" style="swimlane;fontStyle=1;align=center;verticalAlign=top;childLayout=stackLayout;horizontal=1;startSize=26;horizontalStack=0;resizeParent=1;resizeParentMax=0;resizeLast=0;collapsible=1;marginBottom=0;whiteSpace=wrap;html=1;" parent="WIyWlLk6GJQsqaUBKTNV-1" vertex="1">
          <mxGeometry x="560" y="210" width="200" height="406" as="geometry" />
        </mxCell>
        <mxCell id="sIy3QoAhm_caEG3YGeSg-1" value="+ id: int" style="text;strokeColor=none;fillColor=none;align=left;verticalAlign=top;spacingLeft=4;spacingRight=4;overflow=hidden;rotatable=0;points=[[0,0.5],[1,0.5]];portConstraint=eastwest;whiteSpace=wrap;html=1;" parent="sIy3QoAhm_caEG3YGeSg-0" vertex="1">
          <mxGeometry y="26" width="200" height="26" as="geometry" />
        </mxCell>
        <mxCell id="sIy3QoAhm_caEG3YGeSg-4" value="+ data: DateTime" style="text;strokeColor=none;fillColor=none;align=left;verticalAlign=top;spacingLeft=4;spacingRight=4;overflow=hidden;rotatable=0;points=[[0,0.5],[1,0.5]];portConstraint=eastwest;whiteSpace=wrap;html=1;" parent="sIy3QoAhm_caEG3YGeSg-0" vertex="1">
          <mxGeometry y="52" width="200" height="26" as="geometry" />
        </mxCell>
        <mxCell id="sIy3QoAhm_caEG3YGeSg-5" value="+ numeroDeConvidados: int" style="text;strokeColor=none;fillColor=none;align=left;verticalAlign=top;spacingLeft=4;spacingRight=4;overflow=hidden;rotatable=0;points=[[0,0.5],[1,0.5]];portConstraint=eastwest;whiteSpace=wrap;html=1;" parent="sIy3QoAhm_caEG3YGeSg-0" vertex="1">
          <mxGeometry y="78" width="200" height="26" as="geometry" />
        </mxCell>
        <mxCell id="sIy3QoAhm_caEG3YGeSg-7" value="+ spaceId: int" style="text;strokeColor=none;fillColor=none;align=left;verticalAlign=top;spacingLeft=4;spacingRight=4;overflow=hidden;rotatable=0;points=[[0,0.5],[1,0.5]];portConstraint=eastwest;whiteSpace=wrap;html=1;" parent="sIy3QoAhm_caEG3YGeSg-0" vertex="1">
          <mxGeometry y="104" width="200" height="26" as="geometry" />
        </mxCell>
        <mxCell id="sIy3QoAhm_caEG3YGeSg-8" value="+ tipoServico: TipoServico" style="text;strokeColor=none;fillColor=none;align=left;verticalAlign=top;spacingLeft=4;spacingRight=4;overflow=hidden;rotatable=0;points=[[0,0.5],[1,0.5]];portConstraint=eastwest;whiteSpace=wrap;html=1;" parent="sIy3QoAhm_caEG3YGeSg-0" vertex="1">
          <mxGeometry y="130" width="200" height="26" as="geometry" />
        </mxCell>
        <mxCell id="sIy3QoAhm_caEG3YGeSg-10" value="+ preco: double" style="text;strokeColor=none;fillColor=none;align=left;verticalAlign=top;spacingLeft=4;spacingRight=4;overflow=hidden;rotatable=0;points=[[0,0.5],[1,0.5]];portConstraint=eastwest;whiteSpace=wrap;html=1;" parent="sIy3QoAhm_caEG3YGeSg-0" vertex="1">
          <mxGeometry y="156" width="200" height="26" as="geometry" />
        </mxCell>
        <mxCell id="sIy3QoAhm_caEG3YGeSg-15" value="+ items: List&amp;lt;string&amp;gt;" style="text;strokeColor=none;fillColor=none;align=left;verticalAlign=top;spacingLeft=4;spacingRight=4;overflow=hidden;rotatable=0;points=[[0,0.5],[1,0.5]];portConstraint=eastwest;whiteSpace=wrap;html=1;" parent="sIy3QoAhm_caEG3YGeSg-0" vertex="1">
          <mxGeometry y="182" width="200" height="26" as="geometry" />
        </mxCell>
        <mxCell id="sIy3QoAhm_caEG3YGeSg-9" value="+ comidas: List&amp;lt;string&amp;gt;" style="text;strokeColor=none;fillColor=none;align=left;verticalAlign=top;spacingLeft=4;spacingRight=4;overflow=hidden;rotatable=0;points=[[0,0.5],[1,0.5]];portConstraint=eastwest;whiteSpace=wrap;html=1;" parent="sIy3QoAhm_caEG3YGeSg-0" vertex="1">
          <mxGeometry y="208" width="200" height="26" as="geometry" />
        </mxCell>
        <mxCell id="sIy3QoAhm_caEG3YGeSg-16" value="+ bebidas: Dictionary&amp;lt;string, int&amp;gt;" style="text;strokeColor=none;fillColor=none;align=left;verticalAlign=top;spacingLeft=4;spacingRight=4;overflow=hidden;rotatable=0;points=[[0,0.5],[1,0.5]];portConstraint=eastwest;whiteSpace=wrap;html=1;" parent="sIy3QoAhm_caEG3YGeSg-0" vertex="1">
          <mxGeometry y="234" width="200" height="26" as="geometry" />
        </mxCell>
        <mxCell id="sIy3QoAhm_caEG3YGeSg-17" value="+ listaBebidas: List&amp;lt;string&amp;gt;" style="text;strokeColor=none;fillColor=none;align=left;verticalAlign=top;spacingLeft=4;spacingRight=4;overflow=hidden;rotatable=0;points=[[0,0.5],[1,0.5]];portConstraint=eastwest;whiteSpace=wrap;html=1;" parent="sIy3QoAhm_caEG3YGeSg-0" vertex="1">
          <mxGeometry y="260" width="200" height="26" as="geometry" />
        </mxCell>
        <mxCell id="sIy3QoAhm_caEG3YGeSg-14" value="" style="line;strokeWidth=1;fillColor=none;align=left;verticalAlign=middle;spacingTop=-1;spacingLeft=3;spacingRight=3;rotatable=0;labelPosition=right;points=[];portConstraint=eastwest;strokeColor=inherit;" parent="sIy3QoAhm_caEG3YGeSg-0" vertex="1">
          <mxGeometry y="286" width="200" height="8" as="geometry" />
        </mxCell>
        <mxCell id="sIy3QoAhm_caEG3YGeSg-18" value="&lt;i&gt;+ RetornarTipo(): string&lt;/i&gt;" style="text;strokeColor=none;fillColor=none;align=left;verticalAlign=top;spacingLeft=4;spacingRight=4;overflow=hidden;rotatable=0;points=[[0,0.5],[1,0.5]];portConstraint=eastwest;whiteSpace=wrap;html=1;" parent="sIy3QoAhm_caEG3YGeSg-0" vertex="1">
          <mxGeometry y="294" width="200" height="28" as="geometry" />
        </mxCell>
        <mxCell id="sIy3QoAhm_caEG3YGeSg-20" value="&lt;i&gt;+ RetornarStringItems(): string&lt;/i&gt;" style="text;strokeColor=none;fillColor=none;align=left;verticalAlign=top;spacingLeft=4;spacingRight=4;overflow=hidden;rotatable=0;points=[[0,0.5],[1,0.5]];portConstraint=eastwest;whiteSpace=wrap;html=1;" parent="sIy3QoAhm_caEG3YGeSg-0" vertex="1">
          <mxGeometry y="322" width="200" height="28" as="geometry" />
        </mxCell>
        <mxCell id="sIy3QoAhm_caEG3YGeSg-21" value="&lt;i&gt;+ RetornarStringBebidas(): string&lt;/i&gt;" style="text;strokeColor=none;fillColor=none;align=left;verticalAlign=top;spacingLeft=4;spacingRight=4;overflow=hidden;rotatable=0;points=[[0,0.5],[1,0.5]];portConstraint=eastwest;whiteSpace=wrap;html=1;" parent="sIy3QoAhm_caEG3YGeSg-0" vertex="1">
          <mxGeometry y="350" width="200" height="28" as="geometry" />
        </mxCell>
        <mxCell id="sIy3QoAhm_caEG3YGeSg-19" value="&lt;i&gt;+ RetornarStringComida(): string&lt;/i&gt;" style="text;strokeColor=none;fillColor=none;align=left;verticalAlign=top;spacingLeft=4;spacingRight=4;overflow=hidden;rotatable=0;points=[[0,0.5],[1,0.5]];portConstraint=eastwest;whiteSpace=wrap;html=1;" parent="sIy3QoAhm_caEG3YGeSg-0" vertex="1">
          <mxGeometry y="378" width="200" height="28" as="geometry" />
        </mxCell>
        <mxCell id="sIy3QoAhm_caEG3YGeSg-22" value="Casamento" style="html=1;whiteSpace=wrap;" parent="WIyWlLk6GJQsqaUBKTNV-1" vertex="1">
          <mxGeometry x="300" y="820" width="110" height="50" as="geometry" />
        </mxCell>
        <mxCell id="sIy3QoAhm_caEG3YGeSg-28" style="edgeStyle=orthogonalEdgeStyle;rounded=0;orthogonalLoop=1;jettySize=auto;html=1;endArrow=none;endFill=0;" parent="WIyWlLk6GJQsqaUBKTNV-1" source="sIy3QoAhm_caEG3YGeSg-25" edge="1">
          <mxGeometry relative="1" as="geometry">
            <mxPoint x="505" y="731" as="targetPoint" />
          </mxGeometry>
        </mxCell>
        <mxCell id="sIy3QoAhm_caEG3YGeSg-25" value="FestaDaEmpresa" style="html=1;whiteSpace=wrap;" parent="WIyWlLk6GJQsqaUBKTNV-1" vertex="1">
          <mxGeometry x="450" y="820" width="110" height="50" as="geometry" />
        </mxCell>
        <mxCell id="sIy3QoAhm_caEG3YGeSg-26" value="FestaDeAniversario" style="html=1;whiteSpace=wrap;" parent="WIyWlLk6GJQsqaUBKTNV-1" vertex="1">
          <mxGeometry x="600" y="820" width="110" height="50" as="geometry" />
        </mxCell>
        <mxCell id="sIy3QoAhm_caEG3YGeSg-29" style="edgeStyle=orthogonalEdgeStyle;rounded=0;orthogonalLoop=1;jettySize=auto;html=1;endArrow=none;endFill=0;" parent="WIyWlLk6GJQsqaUBKTNV-1" edge="1">
          <mxGeometry relative="1" as="geometry">
            <mxPoint x="420" y="731" as="targetPoint" />
            <mxPoint x="510" y="731" as="sourcePoint" />
          </mxGeometry>
        </mxCell>
        <mxCell id="sIy3QoAhm_caEG3YGeSg-30" style="edgeStyle=orthogonalEdgeStyle;rounded=0;orthogonalLoop=1;jettySize=auto;html=1;endArrow=none;endFill=0;" parent="WIyWlLk6GJQsqaUBKTNV-1" edge="1">
          <mxGeometry relative="1" as="geometry">
            <mxPoint x="654.64" y="731" as="targetPoint" />
            <mxPoint x="654.64" y="820" as="sourcePoint" />
          </mxGeometry>
        </mxCell>
        <mxCell id="sIy3QoAhm_caEG3YGeSg-31" style="edgeStyle=orthogonalEdgeStyle;rounded=0;orthogonalLoop=1;jettySize=auto;html=1;endArrow=none;endFill=0;" parent="WIyWlLk6GJQsqaUBKTNV-1" edge="1">
          <mxGeometry relative="1" as="geometry">
            <mxPoint x="510" y="731" as="targetPoint" />
            <mxPoint x="600" y="731" as="sourcePoint" />
          </mxGeometry>
        </mxCell>
        <mxCell id="sIy3QoAhm_caEG3YGeSg-32" style="edgeStyle=orthogonalEdgeStyle;rounded=0;orthogonalLoop=1;jettySize=auto;html=1;endArrow=none;endFill=0;" parent="WIyWlLk6GJQsqaUBKTNV-1" edge="1">
          <mxGeometry relative="1" as="geometry">
            <mxPoint x="600" y="731" as="targetPoint" />
            <mxPoint x="690" y="731" as="sourcePoint" />
          </mxGeometry>
        </mxCell>
        <mxCell id="sIy3QoAhm_caEG3YGeSg-33" value="FestaLivre" style="html=1;whiteSpace=wrap;" parent="WIyWlLk6GJQsqaUBKTNV-1" vertex="1">
          <mxGeometry x="750" y="820" width="110" height="50" as="geometry" />
        </mxCell>
        <mxCell id="sIy3QoAhm_caEG3YGeSg-34" style="edgeStyle=orthogonalEdgeStyle;rounded=0;orthogonalLoop=1;jettySize=auto;html=1;endArrow=none;endFill=0;" parent="WIyWlLk6GJQsqaUBKTNV-1" edge="1">
          <mxGeometry relative="1" as="geometry">
            <mxPoint x="804.68" y="731" as="targetPoint" />
            <mxPoint x="804.68" y="820" as="sourcePoint" />
          </mxGeometry>
        </mxCell>
        <mxCell id="sIy3QoAhm_caEG3YGeSg-35" style="edgeStyle=orthogonalEdgeStyle;rounded=0;orthogonalLoop=1;jettySize=auto;html=1;endArrow=none;endFill=0;" parent="WIyWlLk6GJQsqaUBKTNV-1" edge="1">
          <mxGeometry relative="1" as="geometry">
            <mxPoint x="690" y="731" as="targetPoint" />
            <mxPoint x="780" y="731" as="sourcePoint" />
          </mxGeometry>
        </mxCell>
        <mxCell id="sIy3QoAhm_caEG3YGeSg-36" style="edgeStyle=orthogonalEdgeStyle;rounded=0;orthogonalLoop=1;jettySize=auto;html=1;endArrow=none;endFill=0;" parent="WIyWlLk6GJQsqaUBKTNV-1" edge="1">
          <mxGeometry relative="1" as="geometry">
            <mxPoint x="780" y="731" as="targetPoint" />
            <mxPoint x="870" y="731" as="sourcePoint" />
          </mxGeometry>
        </mxCell>
        <mxCell id="sIy3QoAhm_caEG3YGeSg-37" value="FestaFormatura" style="html=1;whiteSpace=wrap;" parent="WIyWlLk6GJQsqaUBKTNV-1" vertex="1">
          <mxGeometry x="900" y="820" width="110" height="50" as="geometry" />
        </mxCell>
        <mxCell id="sIy3QoAhm_caEG3YGeSg-38" style="edgeStyle=orthogonalEdgeStyle;rounded=0;orthogonalLoop=1;jettySize=auto;html=1;endArrow=none;endFill=0;" parent="WIyWlLk6GJQsqaUBKTNV-1" edge="1">
          <mxGeometry relative="1" as="geometry">
            <mxPoint x="869" y="731" as="targetPoint" />
            <mxPoint x="956" y="731" as="sourcePoint" />
          </mxGeometry>
        </mxCell>
        <mxCell id="sIy3QoAhm_caEG3YGeSg-39" style="edgeStyle=orthogonalEdgeStyle;rounded=0;orthogonalLoop=1;jettySize=auto;html=1;endArrow=none;endFill=0;" parent="WIyWlLk6GJQsqaUBKTNV-1" edge="1">
          <mxGeometry relative="1" as="geometry">
            <mxPoint x="954.98" y="732" as="targetPoint" />
            <mxPoint x="954.98" y="820" as="sourcePoint" />
            <Array as="points">
              <mxPoint x="954.98" y="731" />
              <mxPoint x="954.98" y="731" />
            </Array>
          </mxGeometry>
        </mxCell>
        <mxCell id="sIy3QoAhm_caEG3YGeSg-40" style="edgeStyle=orthogonalEdgeStyle;rounded=0;orthogonalLoop=1;jettySize=auto;html=1;endArrow=none;endFill=0;" parent="WIyWlLk6GJQsqaUBKTNV-1" edge="1">
          <mxGeometry relative="1" as="geometry">
            <mxPoint x="354.8" y="731" as="targetPoint" />
            <mxPoint x="354.8" y="820" as="sourcePoint" />
            <Array as="points">
              <mxPoint x="354.8" y="760" />
              <mxPoint x="354.8" y="760" />
            </Array>
          </mxGeometry>
        </mxCell>
        <mxCell id="sIy3QoAhm_caEG3YGeSg-41" style="edgeStyle=orthogonalEdgeStyle;rounded=0;orthogonalLoop=1;jettySize=auto;html=1;endArrow=none;endFill=0;" parent="WIyWlLk6GJQsqaUBKTNV-1" edge="1">
          <mxGeometry relative="1" as="geometry">
            <mxPoint x="354" y="731" as="targetPoint" />
            <mxPoint x="444" y="731" as="sourcePoint" />
          </mxGeometry>
        </mxCell>
        <mxCell id="sIy3QoAhm_caEG3YGeSg-62" style="edgeStyle=orthogonalEdgeStyle;rounded=0;orthogonalLoop=1;jettySize=auto;html=1;endArrow=classic;endFill=1;startArrow=none;startFill=0;" parent="WIyWlLk6GJQsqaUBKTNV-1" edge="1">
          <mxGeometry relative="1" as="geometry">
            <mxPoint x="655" y="620" as="targetPoint" />
            <mxPoint x="654.63" y="731" as="sourcePoint" />
          </mxGeometry>
        </mxCell>
        <mxCell id="sIy3QoAhm_caEG3YGeSg-106" style="edgeStyle=orthogonalEdgeStyle;rounded=0;orthogonalLoop=1;jettySize=auto;html=1;entryX=0.5;entryY=0;entryDx=0;entryDy=0;endArrow=none;endFill=0;" parent="WIyWlLk6GJQsqaUBKTNV-1" source="sIy3QoAhm_caEG3YGeSg-63" target="sIy3QoAhm_caEG3YGeSg-96" edge="1">
          <mxGeometry relative="1" as="geometry" />
        </mxCell>
        <mxCell id="sIy3QoAhm_caEG3YGeSg-63" value="&lt;b&gt;BebidaService&lt;/b&gt;" style="swimlane;fontStyle=0;childLayout=stackLayout;horizontal=1;startSize=26;fillColor=none;horizontalStack=0;resizeParent=1;resizeParentMax=0;resizeLast=0;collapsible=1;marginBottom=0;whiteSpace=wrap;html=1;" parent="WIyWlLk6GJQsqaUBKTNV-1" vertex="1">
          <mxGeometry x="740" y="1233" width="430" height="52" as="geometry" />
        </mxCell>
        <mxCell id="sIy3QoAhm_caEG3YGeSg-65" value="- RetornarDicionarioPrecoDeBebidas(festa: Festa): Dictionary&amp;lt;string, double&amp;gt;" style="text;strokeColor=none;fillColor=none;align=left;verticalAlign=top;spacingLeft=4;spacingRight=4;overflow=hidden;rotatable=0;points=[[0,0.5],[1,0.5]];portConstraint=eastwest;whiteSpace=wrap;html=1;" parent="sIy3QoAhm_caEG3YGeSg-63" vertex="1">
          <mxGeometry y="26" width="430" height="26" as="geometry" />
        </mxCell>
        <mxCell id="sIy3QoAhm_caEG3YGeSg-90" style="edgeStyle=orthogonalEdgeStyle;rounded=0;orthogonalLoop=1;jettySize=auto;html=1;entryX=0.5;entryY=0;entryDx=0;entryDy=0;endArrow=diamond;endFill=1;startArrow=none;startFill=0;strokeWidth=1;" parent="WIyWlLk6GJQsqaUBKTNV-1" source="sIy3QoAhm_caEG3YGeSg-67" target="sIy3QoAhm_caEG3YGeSg-80" edge="1">
          <mxGeometry relative="1" as="geometry" />
        </mxCell>
        <mxCell id="sIy3QoAhm_caEG3YGeSg-67" value="Calendario" style="swimlane;fontStyle=0;childLayout=stackLayout;horizontal=1;startSize=26;fillColor=none;horizontalStack=0;resizeParent=1;resizeParentMax=0;resizeLast=0;collapsible=1;marginBottom=0;whiteSpace=wrap;html=1;" parent="WIyWlLk6GJQsqaUBKTNV-1" vertex="1">
          <mxGeometry x="10" y="210" width="170" height="52" as="geometry" />
        </mxCell>
        <mxCell id="sIy3QoAhm_caEG3YGeSg-68" value="+ Calendario: List&amp;lt;DateTime&amp;gt;" style="text;strokeColor=none;fillColor=none;align=left;verticalAlign=top;spacingLeft=4;spacingRight=4;overflow=hidden;rotatable=0;points=[[0,0.5],[1,0.5]];portConstraint=eastwest;whiteSpace=wrap;html=1;" parent="sIy3QoAhm_caEG3YGeSg-67" vertex="1">
          <mxGeometry y="26" width="170" height="26" as="geometry" />
        </mxCell>
        <mxCell id="89PEjHrQ4XXDXBhaza7A-4" style="edgeStyle=orthogonalEdgeStyle;rounded=0;orthogonalLoop=1;jettySize=auto;html=1;endArrow=diamondThin;endFill=1;entryX=0.804;entryY=-0.026;entryDx=0;entryDy=0;entryPerimeter=0;" parent="WIyWlLk6GJQsqaUBKTNV-1" source="sIy3QoAhm_caEG3YGeSg-71" target="-nYd4kfD91HYhXSvi_44-12" edge="1">
          <mxGeometry relative="1" as="geometry">
            <mxPoint x="1430" y="1240" as="targetPoint" />
            <Array as="points">
              <mxPoint x="1650" y="302" />
              <mxPoint x="1650" y="1170" />
              <mxPoint x="1475" y="1170" />
            </Array>
          </mxGeometry>
        </mxCell>
        <mxCell id="sIy3QoAhm_caEG3YGeSg-71" value="Espaco" style="swimlane;fontStyle=1;align=center;verticalAlign=top;childLayout=stackLayout;horizontal=1;startSize=26;horizontalStack=0;resizeParent=1;resizeParentMax=0;resizeLast=0;collapsible=1;marginBottom=0;whiteSpace=wrap;html=1;" parent="WIyWlLk6GJQsqaUBKTNV-1" vertex="1">
          <mxGeometry x="1285" y="207" width="210" height="190" as="geometry" />
        </mxCell>
        <mxCell id="sIy3QoAhm_caEG3YGeSg-72" value="+ id: int" style="text;strokeColor=none;fillColor=none;align=left;verticalAlign=top;spacingLeft=4;spacingRight=4;overflow=hidden;rotatable=0;points=[[0,0.5],[1,0.5]];portConstraint=eastwest;whiteSpace=wrap;html=1;" parent="sIy3QoAhm_caEG3YGeSg-71" vertex="1">
          <mxGeometry y="26" width="210" height="26" as="geometry" />
        </mxCell>
        <mxCell id="sIy3QoAhm_caEG3YGeSg-75" value="+ nome: string" style="text;strokeColor=none;fillColor=none;align=left;verticalAlign=top;spacingLeft=4;spacingRight=4;overflow=hidden;rotatable=0;points=[[0,0.5],[1,0.5]];portConstraint=eastwest;whiteSpace=wrap;html=1;" parent="sIy3QoAhm_caEG3YGeSg-71" vertex="1">
          <mxGeometry y="52" width="210" height="26" as="geometry" />
        </mxCell>
        <mxCell id="sIy3QoAhm_caEG3YGeSg-77" value="+ capacidade: int" style="text;strokeColor=none;fillColor=none;align=left;verticalAlign=top;spacingLeft=4;spacingRight=4;overflow=hidden;rotatable=0;points=[[0,0.5],[1,0.5]];portConstraint=eastwest;whiteSpace=wrap;html=1;" parent="sIy3QoAhm_caEG3YGeSg-71" vertex="1">
          <mxGeometry y="78" width="210" height="26" as="geometry" />
        </mxCell>
        <mxCell id="sIy3QoAhm_caEG3YGeSg-78" value="+ preco: double" style="text;strokeColor=none;fillColor=none;align=left;verticalAlign=top;spacingLeft=4;spacingRight=4;overflow=hidden;rotatable=0;points=[[0,0.5],[1,0.5]];portConstraint=eastwest;whiteSpace=wrap;html=1;" parent="sIy3QoAhm_caEG3YGeSg-71" vertex="1">
          <mxGeometry y="104" width="210" height="26" as="geometry" />
        </mxCell>
        <mxCell id="sIy3QoAhm_caEG3YGeSg-76" value="+ datasMarcadas: List&amp;lt;DateTime&amp;gt;" style="text;strokeColor=none;fillColor=none;align=left;verticalAlign=top;spacingLeft=4;spacingRight=4;overflow=hidden;rotatable=0;points=[[0,0.5],[1,0.5]];portConstraint=eastwest;whiteSpace=wrap;html=1;" parent="sIy3QoAhm_caEG3YGeSg-71" vertex="1">
          <mxGeometry y="130" width="210" height="26" as="geometry" />
        </mxCell>
        <mxCell id="sIy3QoAhm_caEG3YGeSg-73" value="" style="line;strokeWidth=1;fillColor=none;align=left;verticalAlign=middle;spacingTop=-1;spacingLeft=3;spacingRight=3;rotatable=0;labelPosition=right;points=[];portConstraint=eastwest;strokeColor=inherit;" parent="sIy3QoAhm_caEG3YGeSg-71" vertex="1">
          <mxGeometry y="156" width="210" height="8" as="geometry" />
        </mxCell>
        <mxCell id="sIy3QoAhm_caEG3YGeSg-74" value="+ MarcarData(data: DateTime): void" style="text;strokeColor=none;fillColor=none;align=left;verticalAlign=top;spacingLeft=4;spacingRight=4;overflow=hidden;rotatable=0;points=[[0,0.5],[1,0.5]];portConstraint=eastwest;whiteSpace=wrap;html=1;" parent="sIy3QoAhm_caEG3YGeSg-71" vertex="1">
          <mxGeometry y="164" width="210" height="26" as="geometry" />
        </mxCell>
        <mxCell id="89PEjHrQ4XXDXBhaza7A-3" style="edgeStyle=orthogonalEdgeStyle;rounded=0;orthogonalLoop=1;jettySize=auto;html=1;endArrow=none;endFill=0;" parent="WIyWlLk6GJQsqaUBKTNV-1" source="sIy3QoAhm_caEG3YGeSg-86" edge="1">
          <mxGeometry relative="1" as="geometry">
            <mxPoint x="540" y="1438" as="targetPoint" />
            <mxPoint x="-390" y="1370" as="sourcePoint" />
            <Array as="points">
              <mxPoint x="-400" y="1438" />
            </Array>
          </mxGeometry>
        </mxCell>
        <mxCell id="sIy3QoAhm_caEG3YGeSg-80" value="CalendarioService" style="swimlane;fontStyle=1;align=center;verticalAlign=top;childLayout=stackLayout;horizontal=1;startSize=26;horizontalStack=0;resizeParent=1;resizeParentMax=0;resizeLast=0;collapsible=1;marginBottom=0;whiteSpace=wrap;html=1;" parent="WIyWlLk6GJQsqaUBKTNV-1" vertex="1">
          <mxGeometry x="-530" y="1243" width="260" height="86" as="geometry" />
        </mxCell>
        <mxCell id="89PEjHrQ4XXDXBhaza7A-5" value="+ calendario: Calendario" style="text;strokeColor=none;fillColor=none;align=left;verticalAlign=top;spacingLeft=4;spacingRight=4;overflow=hidden;rotatable=0;points=[[0,0.5],[1,0.5]];portConstraint=eastwest;whiteSpace=wrap;html=1;" parent="sIy3QoAhm_caEG3YGeSg-80" vertex="1">
          <mxGeometry y="26" width="260" height="26" as="geometry" />
        </mxCell>
        <mxCell id="89PEjHrQ4XXDXBhaza7A-6" value="" style="line;strokeWidth=1;fillColor=none;align=left;verticalAlign=middle;spacingTop=-1;spacingLeft=3;spacingRight=3;rotatable=0;labelPosition=right;points=[];portConstraint=eastwest;strokeColor=inherit;" parent="sIy3QoAhm_caEG3YGeSg-80" vertex="1">
          <mxGeometry y="52" width="260" height="8" as="geometry" />
        </mxCell>
        <mxCell id="sIy3QoAhm_caEG3YGeSg-86" value="- EhSabadoOuDomingo(data: DateTime): bool" style="text;strokeColor=none;fillColor=none;align=left;verticalAlign=top;spacingLeft=4;spacingRight=4;overflow=hidden;rotatable=0;points=[[0,0.5],[1,0.5]];portConstraint=eastwest;whiteSpace=wrap;html=1;" parent="sIy3QoAhm_caEG3YGeSg-80" vertex="1">
          <mxGeometry y="60" width="260" height="26" as="geometry" />
        </mxCell>
        <mxCell id="sIy3QoAhm_caEG3YGeSg-105" style="edgeStyle=orthogonalEdgeStyle;rounded=0;orthogonalLoop=1;jettySize=auto;html=1;entryX=0.5;entryY=0;entryDx=0;entryDy=0;endArrow=none;endFill=0;" parent="WIyWlLk6GJQsqaUBKTNV-1" source="sIy3QoAhm_caEG3YGeSg-91" target="sIy3QoAhm_caEG3YGeSg-96" edge="1">
          <mxGeometry relative="1" as="geometry">
            <Array as="points">
              <mxPoint x="540" y="1438" />
              <mxPoint x="956" y="1438" />
            </Array>
          </mxGeometry>
        </mxCell>
        <mxCell id="sIy3QoAhm_caEG3YGeSg-91" value="ComidaService" style="swimlane;fontStyle=1;align=center;verticalAlign=top;childLayout=stackLayout;horizontal=1;startSize=26;horizontalStack=0;resizeParent=1;resizeParentMax=0;resizeLast=0;collapsible=1;marginBottom=0;whiteSpace=wrap;html=1;" parent="WIyWlLk6GJQsqaUBKTNV-1" vertex="1">
          <mxGeometry x="420" y="1237" width="240" height="52" as="geometry" />
        </mxCell>
        <mxCell id="sIy3QoAhm_caEG3YGeSg-96" value="FestaECiaServices" style="swimlane;fontStyle=1;align=center;verticalAlign=top;childLayout=stackLayout;horizontal=1;startSize=26;horizontalStack=0;resizeParent=1;resizeParentMax=0;resizeLast=0;collapsible=1;marginBottom=0;whiteSpace=wrap;html=1;" parent="WIyWlLk6GJQsqaUBKTNV-1" vertex="1">
          <mxGeometry x="836" y="1548" width="240" height="104" as="geometry" />
        </mxCell>
        <mxCell id="-nYd4kfD91HYhXSvi_44-33" value="- _festaRepository: IFestaRepository" style="text;strokeColor=none;fillColor=none;align=left;verticalAlign=top;spacingLeft=4;spacingRight=4;overflow=hidden;rotatable=0;points=[[0,0.5],[1,0.5]];portConstraint=eastwest;whiteSpace=wrap;html=1;" parent="sIy3QoAhm_caEG3YGeSg-96" vertex="1">
          <mxGeometry y="26" width="240" height="26" as="geometry" />
        </mxCell>
        <mxCell id="sIy3QoAhm_caEG3YGeSg-97" value="+ _calendario: ICalendarioService" style="text;strokeColor=none;fillColor=none;align=left;verticalAlign=top;spacingLeft=4;spacingRight=4;overflow=hidden;rotatable=0;points=[[0,0.5],[1,0.5]];portConstraint=eastwest;whiteSpace=wrap;html=1;" parent="sIy3QoAhm_caEG3YGeSg-96" vertex="1">
          <mxGeometry y="52" width="240" height="26" as="geometry" />
        </mxCell>
        <mxCell id="sIy3QoAhm_caEG3YGeSg-100" value="+ _espacoService: IEspacoService" style="text;strokeColor=none;fillColor=none;align=left;verticalAlign=top;spacingLeft=4;spacingRight=4;overflow=hidden;rotatable=0;points=[[0,0.5],[1,0.5]];portConstraint=eastwest;whiteSpace=wrap;html=1;" parent="sIy3QoAhm_caEG3YGeSg-96" vertex="1">
          <mxGeometry y="78" width="240" height="26" as="geometry" />
        </mxCell>
        <mxCell id="sIy3QoAhm_caEG3YGeSg-111" value="ItemService" style="swimlane;fontStyle=1;align=center;verticalAlign=top;childLayout=stackLayout;horizontal=1;startSize=26;horizontalStack=0;resizeParent=1;resizeParentMax=0;resizeLast=0;collapsible=1;marginBottom=0;whiteSpace=wrap;html=1;" parent="WIyWlLk6GJQsqaUBKTNV-1" vertex="1">
          <mxGeometry x="-45" y="1243" width="385" height="52" as="geometry" />
        </mxCell>
        <mxCell id="sIy3QoAhm_caEG3YGeSg-119" value="- RetornarDicionarioValores(festa: Festa): Dictionary&amp;lt;string, double&amp;gt;" style="text;strokeColor=none;fillColor=none;align=left;verticalAlign=top;spacingLeft=4;spacingRight=4;overflow=hidden;rotatable=0;points=[[0,0.5],[1,0.5]];portConstraint=eastwest;whiteSpace=wrap;html=1;" parent="sIy3QoAhm_caEG3YGeSg-111" vertex="1">
          <mxGeometry y="26" width="385" height="26" as="geometry" />
        </mxCell>
        <mxCell id="sIy3QoAhm_caEG3YGeSg-120" value="DataBase" style="swimlane;fontStyle=1;align=center;verticalAlign=top;childLayout=stackLayout;horizontal=1;startSize=26;horizontalStack=0;resizeParent=1;resizeParentMax=0;resizeLast=0;collapsible=1;marginBottom=0;whiteSpace=wrap;html=1;" parent="WIyWlLk6GJQsqaUBKTNV-1" vertex="1">
          <mxGeometry x="380" y="1890" width="180" height="86" as="geometry" />
        </mxCell>
        <mxCell id="-nYd4kfD91HYhXSvi_44-35" value="- _connectionString: string" style="text;strokeColor=none;fillColor=none;align=left;verticalAlign=top;spacingLeft=4;spacingRight=4;overflow=hidden;rotatable=0;points=[[0,0.5],[1,0.5]];portConstraint=eastwest;whiteSpace=wrap;html=1;" parent="sIy3QoAhm_caEG3YGeSg-120" vertex="1">
          <mxGeometry y="26" width="180" height="26" as="geometry" />
        </mxCell>
        <mxCell id="-nYd4kfD91HYhXSvi_44-36" value="" style="line;strokeWidth=1;fillColor=none;align=left;verticalAlign=middle;spacingTop=-1;spacingLeft=3;spacingRight=3;rotatable=0;labelPosition=right;points=[];portConstraint=eastwest;strokeColor=inherit;" parent="sIy3QoAhm_caEG3YGeSg-120" vertex="1">
          <mxGeometry y="52" width="180" height="8" as="geometry" />
        </mxCell>
        <mxCell id="sIy3QoAhm_caEG3YGeSg-123" value="+ Conectar(): SqlConnection" style="text;strokeColor=none;fillColor=none;align=left;verticalAlign=top;spacingLeft=4;spacingRight=4;overflow=hidden;rotatable=0;points=[[0,0.5],[1,0.5]];portConstraint=eastwest;whiteSpace=wrap;html=1;" parent="sIy3QoAhm_caEG3YGeSg-120" vertex="1">
          <mxGeometry y="60" width="180" height="26" as="geometry" />
        </mxCell>
        <mxCell id="sIy3QoAhm_caEG3YGeSg-135" style="edgeStyle=orthogonalEdgeStyle;rounded=0;orthogonalLoop=1;jettySize=auto;html=1;endArrow=none;endFill=0;startArrow=classic;startFill=1;dashed=1;entryX=0.5;entryY=0;entryDx=0;entryDy=0;" parent="WIyWlLk6GJQsqaUBKTNV-1" source="sIy3QoAhm_caEG3YGeSg-124" target="sIy3QoAhm_caEG3YGeSg-127" edge="1">
          <mxGeometry relative="1" as="geometry">
            <mxPoint x="1629.6923076923076" y="2051" as="targetPoint" />
          </mxGeometry>
        </mxCell>
        <mxCell id="89PEjHrQ4XXDXBhaza7A-0" style="edgeStyle=orthogonalEdgeStyle;rounded=0;orthogonalLoop=1;jettySize=auto;html=1;entryX=1;entryY=0.25;entryDx=0;entryDy=0;endArrow=diamondThin;endFill=1;exitX=1;exitY=0.5;exitDx=0;exitDy=0;" parent="WIyWlLk6GJQsqaUBKTNV-1" source="-nYd4kfD91HYhXSvi_44-37" target="-nYd4kfD91HYhXSvi_44-12" edge="1">
          <mxGeometry relative="1" as="geometry">
            <mxPoint x="1810" y="1703" as="sourcePoint" />
          </mxGeometry>
        </mxCell>
        <mxCell id="sIy3QoAhm_caEG3YGeSg-124" value="&lt;p style=&quot;margin:0px;margin-top:4px;text-align:center;&quot;&gt;&lt;i&gt;&amp;lt;&amp;lt;Interface&amp;gt;&amp;gt;&lt;/i&gt;&lt;br&gt;&lt;b&gt;IEspacoRepository&lt;/b&gt;&lt;/p&gt;&lt;hr size=&quot;1&quot; style=&quot;border-style:solid;&quot;&gt;&lt;p style=&quot;margin:0px;margin-left:4px;&quot;&gt;&lt;/p&gt;&lt;p style=&quot;margin:0px;margin-left:4px;&quot;&gt;+ ListarTodos(): List&amp;lt;Espaco&amp;gt;&lt;/p&gt;&lt;p style=&quot;margin:0px;margin-left:4px;&quot;&gt;+ PegarPorId(id: int): Espaco&lt;/p&gt;" style="verticalAlign=top;align=left;overflow=fill;html=1;whiteSpace=wrap;" parent="WIyWlLk6GJQsqaUBKTNV-1" vertex="1">
          <mxGeometry x="1442" y="1709" width="215" height="120" as="geometry" />
        </mxCell>
        <mxCell id="sIy3QoAhm_caEG3YGeSg-125" value="&lt;p style=&quot;margin:0px;margin-top:4px;text-align:center;&quot;&gt;&lt;i&gt;&amp;lt;&amp;lt;Interface&amp;gt;&amp;gt;&lt;/i&gt;&lt;br&gt;&lt;b&gt;IFestaRepository&lt;/b&gt;&lt;/p&gt;&lt;p style=&quot;margin:0px;margin-left:4px;&quot;&gt;&lt;/p&gt;&lt;p style=&quot;margin:0px;margin-left:4px;&quot;&gt;&lt;br&gt;&lt;/p&gt;&lt;p style=&quot;margin:0px;margin-left:4px;&quot;&gt;+ Inserir(festa: Festa): void&lt;/p&gt;&lt;p style=&quot;margin:0px;margin-left:4px;&quot;&gt;+ Deletar(id: int): void&lt;/p&gt;&lt;p style=&quot;margin: 0px 0px 0px 4px;&quot;&gt;+ ListarTodos(): List&amp;lt;Espaco&amp;gt;&lt;/p&gt;&lt;div&gt;&lt;br&gt;&lt;/div&gt;" style="verticalAlign=top;align=left;overflow=fill;html=1;whiteSpace=wrap;" parent="WIyWlLk6GJQsqaUBKTNV-1" vertex="1">
          <mxGeometry x="862" y="1724" width="190" height="90" as="geometry" />
        </mxCell>
        <mxCell id="sIy3QoAhm_caEG3YGeSg-126" value="" style="line;strokeWidth=1;fillColor=none;align=left;verticalAlign=middle;spacingTop=-1;spacingLeft=3;spacingRight=3;rotatable=0;labelPosition=right;points=[];portConstraint=eastwest;strokeColor=inherit;" parent="WIyWlLk6GJQsqaUBKTNV-1" vertex="1">
          <mxGeometry x="862" y="1754" width="190" height="20" as="geometry" />
        </mxCell>
        <mxCell id="sIy3QoAhm_caEG3YGeSg-127" value="EspacoRepository" style="swimlane;fontStyle=1;align=center;verticalAlign=top;childLayout=stackLayout;horizontal=1;startSize=26;horizontalStack=0;resizeParent=1;resizeParentMax=0;resizeLast=0;collapsible=1;marginBottom=0;whiteSpace=wrap;html=1;" parent="WIyWlLk6GJQsqaUBKTNV-1" vertex="1">
          <mxGeometry x="1415.5" y="2044" width="267.5" height="78" as="geometry" />
        </mxCell>
        <mxCell id="-nYd4kfD91HYhXSvi_44-37" value="- _dataBase: DataBase" style="text;strokeColor=none;fillColor=none;align=left;verticalAlign=top;spacingLeft=4;spacingRight=4;overflow=hidden;rotatable=0;points=[[0,0.5],[1,0.5]];portConstraint=eastwest;whiteSpace=wrap;html=1;" parent="sIy3QoAhm_caEG3YGeSg-127" vertex="1">
          <mxGeometry y="26" width="267.5" height="26" as="geometry" />
        </mxCell>
        <mxCell id="sIy3QoAhm_caEG3YGeSg-130" value="- CriarEspaco(reader: SqlDataReader): Espaco" style="text;strokeColor=none;fillColor=none;align=left;verticalAlign=top;spacingLeft=4;spacingRight=4;overflow=hidden;rotatable=0;points=[[0,0.5],[1,0.5]];portConstraint=eastwest;whiteSpace=wrap;html=1;" parent="sIy3QoAhm_caEG3YGeSg-127" vertex="1">
          <mxGeometry y="52" width="267.5" height="26" as="geometry" />
        </mxCell>
        <mxCell id="sIy3QoAhm_caEG3YGeSg-140" style="edgeStyle=orthogonalEdgeStyle;rounded=0;orthogonalLoop=1;jettySize=auto;html=1;dashed=1;" parent="WIyWlLk6GJQsqaUBKTNV-1" source="sIy3QoAhm_caEG3YGeSg-136" target="sIy3QoAhm_caEG3YGeSg-125" edge="1">
          <mxGeometry relative="1" as="geometry">
            <Array as="points">
              <mxPoint x="952" y="1884" />
              <mxPoint x="952" y="1884" />
            </Array>
          </mxGeometry>
        </mxCell>
        <mxCell id="sIy3QoAhm_caEG3YGeSg-136" value="FestaRepository" style="swimlane;fontStyle=1;align=center;verticalAlign=top;childLayout=stackLayout;horizontal=1;startSize=26;horizontalStack=0;resizeParent=1;resizeParentMax=0;resizeLast=0;collapsible=1;marginBottom=0;whiteSpace=wrap;html=1;" parent="WIyWlLk6GJQsqaUBKTNV-1" vertex="1">
          <mxGeometry x="836" y="1890" width="255" height="78" as="geometry" />
        </mxCell>
        <mxCell id="-nYd4kfD91HYhXSvi_44-38" value="- _dataBase: DataBase" style="text;strokeColor=none;fillColor=none;align=left;verticalAlign=top;spacingLeft=4;spacingRight=4;overflow=hidden;rotatable=0;points=[[0,0.5],[1,0.5]];portConstraint=eastwest;whiteSpace=wrap;html=1;" parent="sIy3QoAhm_caEG3YGeSg-136" vertex="1">
          <mxGeometry y="26" width="255" height="26" as="geometry" />
        </mxCell>
        <mxCell id="sIy3QoAhm_caEG3YGeSg-139" value="- CriarFesta(reader: SqlDataReader): Festa" style="text;strokeColor=none;fillColor=none;align=left;verticalAlign=top;spacingLeft=4;spacingRight=4;overflow=hidden;rotatable=0;points=[[0,0.5],[1,0.5]];portConstraint=eastwest;whiteSpace=wrap;html=1;" parent="sIy3QoAhm_caEG3YGeSg-136" vertex="1">
          <mxGeometry y="52" width="255" height="26" as="geometry" />
        </mxCell>
        <mxCell id="-nYd4kfD91HYhXSvi_44-4" value="&lt;p style=&quot;margin:0px;margin-top:4px;text-align:center;&quot;&gt;&lt;i&gt;&amp;lt;&amp;lt;enumeration&amp;gt;&amp;gt;&lt;/i&gt;&lt;br&gt;&lt;b&gt;TipoFesta&lt;/b&gt;&lt;/p&gt;&lt;hr size=&quot;1&quot; style=&quot;border-style:solid;&quot;&gt;&lt;p style=&quot;margin:0px;margin-left:4px;&quot;&gt;- Casamento&lt;/p&gt;&lt;p style=&quot;margin:0px;margin-left:4px;&quot;&gt;- FestaDeAniversario&lt;/p&gt;&lt;p style=&quot;margin:0px;margin-left:4px;&quot;&gt;- FestaDeFormatura&lt;/p&gt;&lt;p style=&quot;margin:0px;margin-left:4px;&quot;&gt;- FestaDaEmpresa&lt;/p&gt;&lt;p style=&quot;margin:0px;margin-left:4px;&quot;&gt;- FestaLivre&lt;/p&gt;" style="verticalAlign=top;align=left;overflow=fill;html=1;whiteSpace=wrap;" parent="WIyWlLk6GJQsqaUBKTNV-1" vertex="1">
          <mxGeometry x="928" y="240" width="190" height="140" as="geometry" />
        </mxCell>
        <mxCell id="-nYd4kfD91HYhXSvi_44-5" value="&lt;p style=&quot;margin:0px;margin-top:4px;text-align:center;&quot;&gt;&lt;i&gt;&amp;lt;&amp;lt;enumeration&amp;gt;&amp;gt;&lt;/i&gt;&lt;br&gt;&lt;b&gt;TipoFesta&lt;/b&gt;&lt;/p&gt;&lt;hr size=&quot;1&quot; style=&quot;border-style:solid;&quot;&gt;&lt;p style=&quot;margin:0px;margin-left:4px;&quot;&gt;- Standard&lt;/p&gt;&lt;p style=&quot;margin:0px;margin-left:4px;&quot;&gt;- Luxo&lt;/p&gt;&lt;p style=&quot;margin:0px;margin-left:4px;&quot;&gt;- Premier&lt;/p&gt;" style="verticalAlign=top;align=left;overflow=fill;html=1;whiteSpace=wrap;" parent="WIyWlLk6GJQsqaUBKTNV-1" vertex="1">
          <mxGeometry x="930" y="396" width="190" height="90" as="geometry" />
        </mxCell>
        <mxCell id="-nYd4kfD91HYhXSvi_44-8" style="edgeStyle=orthogonalEdgeStyle;rounded=0;orthogonalLoop=1;jettySize=auto;html=1;exitX=0.5;exitY=1;exitDx=0;exitDy=0;" parent="WIyWlLk6GJQsqaUBKTNV-1" source="-nYd4kfD91HYhXSvi_44-4" target="-nYd4kfD91HYhXSvi_44-4" edge="1">
          <mxGeometry relative="1" as="geometry" />
        </mxCell>
        <mxCell id="-nYd4kfD91HYhXSvi_44-9" style="edgeStyle=orthogonalEdgeStyle;rounded=0;orthogonalLoop=1;jettySize=auto;html=1;entryX=1.001;entryY=-0.101;entryDx=0;entryDy=0;entryPerimeter=0;endArrow=diamondThin;endFill=1;" parent="WIyWlLk6GJQsqaUBKTNV-1" source="-nYd4kfD91HYhXSvi_44-5" target="sIy3QoAhm_caEG3YGeSg-16" edge="1">
          <mxGeometry relative="1" as="geometry" />
        </mxCell>
        <mxCell id="-nYd4kfD91HYhXSvi_44-11" style="edgeStyle=orthogonalEdgeStyle;rounded=0;orthogonalLoop=1;jettySize=auto;html=1;entryX=1.004;entryY=0.842;entryDx=0;entryDy=0;entryPerimeter=0;endArrow=diamondThin;endFill=1;" parent="WIyWlLk6GJQsqaUBKTNV-1" source="-nYd4kfD91HYhXSvi_44-4" target="sIy3QoAhm_caEG3YGeSg-5" edge="1">
          <mxGeometry relative="1" as="geometry" />
        </mxCell>
        <mxCell id="-nYd4kfD91HYhXSvi_44-19" style="edgeStyle=orthogonalEdgeStyle;rounded=0;orthogonalLoop=1;jettySize=auto;html=1;entryX=0.5;entryY=0;entryDx=0;entryDy=0;endArrow=diamondThin;endFill=1;" parent="WIyWlLk6GJQsqaUBKTNV-1" source="-nYd4kfD91HYhXSvi_44-12" target="sIy3QoAhm_caEG3YGeSg-96" edge="1">
          <mxGeometry relative="1" as="geometry">
            <Array as="points">
              <mxPoint x="1390" y="1438" />
              <mxPoint x="956" y="1438" />
            </Array>
          </mxGeometry>
        </mxCell>
        <mxCell id="-nYd4kfD91HYhXSvi_44-12" value="EspacoService" style="swimlane;fontStyle=1;align=center;verticalAlign=top;childLayout=stackLayout;horizontal=1;startSize=26;horizontalStack=0;resizeParent=1;resizeParentMax=0;resizeLast=0;collapsible=1;marginBottom=0;whiteSpace=wrap;html=1;" parent="WIyWlLk6GJQsqaUBKTNV-1" vertex="1">
          <mxGeometry x="1250" y="1235" width="280" height="78" as="geometry" />
        </mxCell>
        <mxCell id="-nYd4kfD91HYhXSvi_44-34" value="- _espacoRepository: IEspacoRepository" style="text;strokeColor=none;fillColor=none;align=left;verticalAlign=top;spacingLeft=4;spacingRight=4;overflow=hidden;rotatable=0;points=[[0,0.5],[1,0.5]];portConstraint=eastwest;whiteSpace=wrap;html=1;" parent="-nYd4kfD91HYhXSvi_44-12" vertex="1">
          <mxGeometry y="26" width="280" height="26" as="geometry" />
        </mxCell>
        <mxCell id="-nYd4kfD91HYhXSvi_44-18" value="+ MarcarData(data: string, id: int): bool" style="text;strokeColor=none;fillColor=none;align=left;verticalAlign=top;spacingLeft=4;spacingRight=4;overflow=hidden;rotatable=0;points=[[0,0.5],[1,0.5]];portConstraint=eastwest;whiteSpace=wrap;html=1;" parent="-nYd4kfD91HYhXSvi_44-12" vertex="1">
          <mxGeometry y="52" width="280" height="26" as="geometry" />
        </mxCell>
        <mxCell id="-nYd4kfD91HYhXSvi_44-22" style="edgeStyle=orthogonalEdgeStyle;rounded=0;orthogonalLoop=1;jettySize=auto;html=1;endArrow=none;endFill=0;startArrow=classic;startFill=1;dashed=1;" parent="WIyWlLk6GJQsqaUBKTNV-1" source="-nYd4kfD91HYhXSvi_44-20" target="sIy3QoAhm_caEG3YGeSg-63" edge="1">
          <mxGeometry relative="1" as="geometry" />
        </mxCell>
        <mxCell id="-nYd4kfD91HYhXSvi_44-20" value="&lt;p style=&quot;margin:0px;margin-top:4px;text-align:center;&quot;&gt;&lt;i&gt;&amp;lt;&amp;lt;Interface&amp;gt;&amp;gt;&lt;/i&gt;&lt;br&gt;&lt;b&gt;IBebidaService&lt;/b&gt;&lt;/p&gt;&lt;hr size=&quot;1&quot; style=&quot;border-style:solid;&quot;&gt;&lt;p style=&quot;margin:0px;margin-left:4px;&quot;&gt;&lt;br&gt;&lt;/p&gt;" style="verticalAlign=top;align=left;overflow=fill;html=1;whiteSpace=wrap;" parent="WIyWlLk6GJQsqaUBKTNV-1" vertex="1">
          <mxGeometry x="813" y="1021" width="285" height="90" as="geometry" />
        </mxCell>
        <mxCell id="sIy3QoAhm_caEG3YGeSg-64" value="+ DefinirValorBebidas(festa: Festa): double" style="text;strokeColor=none;fillColor=none;align=left;verticalAlign=top;spacingLeft=4;spacingRight=4;overflow=hidden;rotatable=0;points=[[0,0.5],[1,0.5]];portConstraint=eastwest;whiteSpace=wrap;html=1;fontStyle=6" parent="WIyWlLk6GJQsqaUBKTNV-1" vertex="1">
          <mxGeometry x="819" y="1061" width="284" height="26" as="geometry" />
        </mxCell>
        <mxCell id="sIy3QoAhm_caEG3YGeSg-66" value="+ DefinirListaBebidas(festa: Festa): List&amp;lt;string&amp;gt;" style="text;strokeColor=none;fillColor=none;align=left;verticalAlign=top;spacingLeft=4;spacingRight=4;overflow=hidden;rotatable=0;points=[[0,0.5],[1,0.5]];portConstraint=eastwest;whiteSpace=wrap;html=1;fontStyle=6" parent="WIyWlLk6GJQsqaUBKTNV-1" vertex="1">
          <mxGeometry x="818" y="1083" width="275" height="26" as="geometry" />
        </mxCell>
        <mxCell id="-nYd4kfD91HYhXSvi_44-24" style="edgeStyle=orthogonalEdgeStyle;rounded=0;orthogonalLoop=1;jettySize=auto;html=1;entryX=0.5;entryY=0;entryDx=0;entryDy=0;startArrow=classic;startFill=1;endArrow=none;endFill=0;dashed=1;" parent="WIyWlLk6GJQsqaUBKTNV-1" source="-nYd4kfD91HYhXSvi_44-23" target="sIy3QoAhm_caEG3YGeSg-91" edge="1">
          <mxGeometry relative="1" as="geometry" />
        </mxCell>
        <mxCell id="-nYd4kfD91HYhXSvi_44-23" value="&lt;p style=&quot;margin:0px;margin-top:4px;text-align:center;&quot;&gt;&lt;i&gt;&amp;lt;&amp;lt;Interface&amp;gt;&amp;gt;&lt;/i&gt;&lt;br&gt;&lt;b&gt;IComidaService&lt;/b&gt;&lt;/p&gt;&lt;hr size=&quot;1&quot; style=&quot;border-style:solid;&quot;&gt;&lt;p style=&quot;margin:0px;margin-left:4px;&quot;&gt;&lt;br&gt;&lt;/p&gt;" style="verticalAlign=top;align=left;overflow=fill;html=1;whiteSpace=wrap;" parent="WIyWlLk6GJQsqaUBKTNV-1" vertex="1">
          <mxGeometry x="394.5" y="1019" width="292.5" height="90" as="geometry" />
        </mxCell>
        <mxCell id="sIy3QoAhm_caEG3YGeSg-94" value="+ DefinirValorComidas(festa: Festa): double" style="text;strokeColor=none;fillColor=none;align=left;verticalAlign=top;spacingLeft=4;spacingRight=4;overflow=hidden;rotatable=0;points=[[0,0.5],[1,0.5]];portConstraint=eastwest;whiteSpace=wrap;html=1;fontStyle=6" parent="WIyWlLk6GJQsqaUBKTNV-1" vertex="1">
          <mxGeometry x="397.5" y="1057" width="272.5" height="26" as="geometry" />
        </mxCell>
        <mxCell id="sIy3QoAhm_caEG3YGeSg-95" value="+ DefinirListaComidas(festa: Festa): List&amp;lt;string&amp;gt;" style="text;strokeColor=none;fillColor=none;align=left;verticalAlign=top;spacingLeft=4;spacingRight=4;overflow=hidden;rotatable=0;points=[[0,0.5],[1,0.5]];portConstraint=eastwest;whiteSpace=wrap;html=1;fontStyle=6" parent="WIyWlLk6GJQsqaUBKTNV-1" vertex="1">
          <mxGeometry x="397.5" y="1083" width="272.5" height="26" as="geometry" />
        </mxCell>
        <mxCell id="-nYd4kfD91HYhXSvi_44-26" style="edgeStyle=orthogonalEdgeStyle;rounded=0;orthogonalLoop=1;jettySize=auto;html=1;entryX=0.5;entryY=0;entryDx=0;entryDy=0;endArrow=none;endFill=0;startArrow=classic;startFill=1;dashed=1;" parent="WIyWlLk6GJQsqaUBKTNV-1" source="-nYd4kfD91HYhXSvi_44-25" target="-nYd4kfD91HYhXSvi_44-12" edge="1">
          <mxGeometry relative="1" as="geometry" />
        </mxCell>
        <mxCell id="-nYd4kfD91HYhXSvi_44-25" value="&lt;p style=&quot;margin:0px;margin-top:4px;text-align:center;&quot;&gt;&lt;i&gt;&amp;lt;&amp;lt;Interface&amp;gt;&amp;gt;&lt;/i&gt;&lt;br&gt;&lt;b&gt;IEspacoService&lt;/b&gt;&lt;/p&gt;&lt;hr size=&quot;1&quot; style=&quot;border-style:solid;&quot;&gt;&lt;p style=&quot;margin:0px;margin-left:4px;&quot;&gt;&lt;br&gt;&lt;/p&gt;" style="verticalAlign=top;align=left;overflow=fill;html=1;whiteSpace=wrap;" parent="WIyWlLk6GJQsqaUBKTNV-1" vertex="1">
          <mxGeometry x="1185" y="1019" width="410" height="114" as="geometry" />
        </mxCell>
        <mxCell id="-nYd4kfD91HYhXSvi_44-15" value="+ ListaDeEspacosDisponiveis(quantidadeDePessoas: int): List&amp;lt;Espaco&amp;gt;" style="text;strokeColor=none;fillColor=none;align=left;verticalAlign=top;spacingLeft=4;spacingRight=4;overflow=hidden;rotatable=0;points=[[0,0.5],[1,0.5]];portConstraint=eastwest;whiteSpace=wrap;html=1;" parent="WIyWlLk6GJQsqaUBKTNV-1" vertex="1">
          <mxGeometry x="1184" y="1061" width="400" height="26" as="geometry" />
        </mxCell>
        <mxCell id="-nYd4kfD91HYhXSvi_44-16" value="+ ListarTodosEspacos(): List&amp;lt;Espaco&amp;gt;" style="text;strokeColor=none;fillColor=none;align=left;verticalAlign=top;spacingLeft=4;spacingRight=4;overflow=hidden;rotatable=0;points=[[0,0.5],[1,0.5]];portConstraint=eastwest;whiteSpace=wrap;html=1;" parent="WIyWlLk6GJQsqaUBKTNV-1" vertex="1">
          <mxGeometry x="1184" y="1083" width="280" height="26" as="geometry" />
        </mxCell>
        <mxCell id="-nYd4kfD91HYhXSvi_44-17" value="+ PegarEspacoPorId(id: int): Espaco" style="text;strokeColor=none;fillColor=none;align=left;verticalAlign=top;spacingLeft=4;spacingRight=4;overflow=hidden;rotatable=0;points=[[0,0.5],[1,0.5]];portConstraint=eastwest;whiteSpace=wrap;html=1;" parent="WIyWlLk6GJQsqaUBKTNV-1" vertex="1">
          <mxGeometry x="1184" y="1103" width="280" height="26" as="geometry" />
        </mxCell>
        <mxCell id="-nYd4kfD91HYhXSvi_44-27" value="&lt;p style=&quot;margin:0px;margin-top:4px;text-align:center;&quot;&gt;&lt;i&gt;&amp;lt;&amp;lt;Interface&amp;gt;&amp;gt;&lt;/i&gt;&lt;br&gt;&lt;b&gt;IFestaService&lt;/b&gt;&lt;/p&gt;&lt;hr size=&quot;1&quot; style=&quot;border-style:solid;&quot;&gt;&lt;p style=&quot;margin:0px;margin-left:4px;&quot;&gt;&lt;br&gt;&lt;/p&gt;" style="verticalAlign=top;align=left;overflow=fill;html=1;whiteSpace=wrap;" parent="WIyWlLk6GJQsqaUBKTNV-1" vertex="1">
          <mxGeometry x="380" y="1530" width="221" height="135" as="geometry" />
        </mxCell>
        <mxCell id="sIy3QoAhm_caEG3YGeSg-99" value="+ MarcarFesta(festa: Festa): void" style="text;strokeColor=none;fillColor=none;align=left;verticalAlign=top;spacingLeft=4;spacingRight=4;overflow=hidden;rotatable=0;points=[[0,0.5],[1,0.5]];portConstraint=eastwest;whiteSpace=wrap;html=1;" parent="WIyWlLk6GJQsqaUBKTNV-1" vertex="1">
          <mxGeometry x="380" y="1573" width="240" height="26" as="geometry" />
        </mxCell>
        <mxCell id="sIy3QoAhm_caEG3YGeSg-101" value="+ DeletarFesta(id: Int): void" style="text;strokeColor=none;fillColor=none;align=left;verticalAlign=top;spacingLeft=4;spacingRight=4;overflow=hidden;rotatable=0;points=[[0,0.5],[1,0.5]];portConstraint=eastwest;whiteSpace=wrap;html=1;" parent="WIyWlLk6GJQsqaUBKTNV-1" vertex="1">
          <mxGeometry x="380" y="1599" width="240" height="26" as="geometry" />
        </mxCell>
        <mxCell id="sIy3QoAhm_caEG3YGeSg-102" value="+ ListarTodasFestas(): List&amp;lt;Festa&amp;gt;" style="text;strokeColor=none;fillColor=none;align=left;verticalAlign=top;spacingLeft=4;spacingRight=4;overflow=hidden;rotatable=0;points=[[0,0.5],[1,0.5]];portConstraint=eastwest;whiteSpace=wrap;html=1;" parent="WIyWlLk6GJQsqaUBKTNV-1" vertex="1">
          <mxGeometry x="380" y="1625" width="240" height="26" as="geometry" />
        </mxCell>
        <mxCell id="-nYd4kfD91HYhXSvi_44-28" style="edgeStyle=orthogonalEdgeStyle;rounded=0;orthogonalLoop=1;jettySize=auto;html=1;startArrow=classic;startFill=1;endArrow=none;endFill=0;dashed=1;exitX=1.002;exitY=0.607;exitDx=0;exitDy=0;exitPerimeter=0;" parent="WIyWlLk6GJQsqaUBKTNV-1" source="-nYd4kfD91HYhXSvi_44-27" target="sIy3QoAhm_caEG3YGeSg-97" edge="1">
          <mxGeometry relative="1" as="geometry">
            <mxPoint x="1080" y="1622" as="targetPoint" />
            <mxPoint x="640" y="1613" as="sourcePoint" />
          </mxGeometry>
        </mxCell>
        <mxCell id="-nYd4kfD91HYhXSvi_44-29" value="&lt;p style=&quot;margin:0px;margin-top:4px;text-align:center;&quot;&gt;&lt;i&gt;&amp;lt;&amp;lt;Interface&amp;gt;&amp;gt;&lt;/i&gt;&lt;br&gt;&lt;b&gt;IItemService&lt;/b&gt;&lt;/p&gt;&lt;hr size=&quot;1&quot; style=&quot;border-style:solid;&quot;&gt;&lt;p style=&quot;margin:0px;margin-left:4px;&quot;&gt;&lt;br&gt;&lt;/p&gt;" style="verticalAlign=top;align=left;overflow=fill;html=1;whiteSpace=wrap;" parent="WIyWlLk6GJQsqaUBKTNV-1" vertex="1">
          <mxGeometry x="-45" y="1021" width="410" height="114" as="geometry" />
        </mxCell>
        <mxCell id="sIy3QoAhm_caEG3YGeSg-114" value="&lt;i&gt;&lt;u&gt;+ DefinirValorItens(festa: Festa, capacidade: int): double&lt;/u&gt;&lt;/i&gt;" style="text;strokeColor=none;fillColor=none;align=left;verticalAlign=top;spacingLeft=4;spacingRight=4;overflow=hidden;rotatable=0;points=[[0,0.5],[1,0.5]];portConstraint=eastwest;whiteSpace=wrap;html=1;" parent="WIyWlLk6GJQsqaUBKTNV-1" vertex="1">
          <mxGeometry x="-45" y="1063" width="360" height="26" as="geometry" />
        </mxCell>
        <mxCell id="sIy3QoAhm_caEG3YGeSg-115" value="+ DefinirListaItems(festa: Festa): List&amp;lt;string&amp;gt;" style="text;strokeColor=none;fillColor=none;align=left;verticalAlign=top;spacingLeft=4;spacingRight=4;overflow=hidden;rotatable=0;points=[[0,0.5],[1,0.5]];portConstraint=eastwest;whiteSpace=wrap;html=1;fontStyle=6" parent="WIyWlLk6GJQsqaUBKTNV-1" vertex="1">
          <mxGeometry x="-45" y="1093" width="360" height="26" as="geometry" />
        </mxCell>
        <mxCell id="-nYd4kfD91HYhXSvi_44-30" style="edgeStyle=orthogonalEdgeStyle;rounded=0;orthogonalLoop=1;jettySize=auto;html=1;entryX=0.532;entryY=0;entryDx=0;entryDy=0;entryPerimeter=0;endArrow=none;endFill=0;startArrow=classic;startFill=1;dashed=1;" parent="WIyWlLk6GJQsqaUBKTNV-1" source="-nYd4kfD91HYhXSvi_44-29" target="sIy3QoAhm_caEG3YGeSg-111" edge="1">
          <mxGeometry relative="1" as="geometry" />
        </mxCell>
        <mxCell id="-nYd4kfD91HYhXSvi_44-32" style="edgeStyle=orthogonalEdgeStyle;rounded=0;orthogonalLoop=1;jettySize=auto;html=1;entryX=1;entryY=0.5;entryDx=0;entryDy=0;endArrow=none;endFill=0;startArrow=classic;startFill=1;dashed=1;" parent="WIyWlLk6GJQsqaUBKTNV-1" source="-nYd4kfD91HYhXSvi_44-31" edge="1">
          <mxGeometry relative="1" as="geometry">
            <mxPoint x="-270.0000000000002" y="1282" as="targetPoint" />
            <Array as="points">
              <mxPoint x="-215" y="1282" />
            </Array>
          </mxGeometry>
        </mxCell>
        <mxCell id="-nYd4kfD91HYhXSvi_44-31" value="&lt;p style=&quot;margin:0px;margin-top:4px;text-align:center;&quot;&gt;&lt;i&gt;&amp;lt;&amp;lt;Interface&amp;gt;&amp;gt;&lt;/i&gt;&lt;br&gt;&lt;b&gt;ICalendarioService&lt;/b&gt;&lt;/p&gt;&lt;hr size=&quot;1&quot; style=&quot;border-style:solid;&quot;&gt;&lt;p style=&quot;margin:0px;margin-left:4px;&quot;&gt;&lt;br&gt;&lt;/p&gt;" style="verticalAlign=top;align=left;overflow=fill;html=1;whiteSpace=wrap;" parent="WIyWlLk6GJQsqaUBKTNV-1" vertex="1">
          <mxGeometry x="-370" y="1021" width="310" height="152" as="geometry" />
        </mxCell>
        <mxCell id="sIy3QoAhm_caEG3YGeSg-83" value="+ MarcarData(): DateTime" style="text;strokeColor=none;fillColor=none;align=left;verticalAlign=top;spacingLeft=4;spacingRight=4;overflow=hidden;rotatable=0;points=[[0,0.5],[1,0.5]];portConstraint=eastwest;whiteSpace=wrap;html=1;" parent="WIyWlLk6GJQsqaUBKTNV-1" vertex="1">
          <mxGeometry x="-368" y="1063" width="260" height="26" as="geometry" />
        </mxCell>
        <mxCell id="sIy3QoAhm_caEG3YGeSg-84" value="+ MarcarData(dataAtual: DateTime): DateTime" style="text;strokeColor=none;fillColor=none;align=left;verticalAlign=top;spacingLeft=4;spacingRight=4;overflow=hidden;rotatable=0;points=[[0,0.5],[1,0.5]];portConstraint=eastwest;whiteSpace=wrap;html=1;" parent="WIyWlLk6GJQsqaUBKTNV-1" vertex="1">
          <mxGeometry x="-368" y="1089" width="260" height="26" as="geometry" />
        </mxCell>
        <mxCell id="sIy3QoAhm_caEG3YGeSg-85" value="+ DataNaoEValida(data: DateTime): bool" style="text;strokeColor=none;fillColor=none;align=left;verticalAlign=top;spacingLeft=4;spacingRight=4;overflow=hidden;rotatable=0;points=[[0,0.5],[1,0.5]];portConstraint=eastwest;whiteSpace=wrap;html=1;" parent="WIyWlLk6GJQsqaUBKTNV-1" vertex="1">
          <mxGeometry x="-368" y="1115" width="260" height="26" as="geometry" />
        </mxCell>
        <mxCell id="sIy3QoAhm_caEG3YGeSg-88" value="+ UltimaDataMarcada(): DateTIme" style="text;strokeColor=none;fillColor=none;align=left;verticalAlign=top;spacingLeft=4;spacingRight=4;overflow=hidden;rotatable=0;points=[[0,0.5],[1,0.5]];portConstraint=eastwest;whiteSpace=wrap;html=1;" parent="WIyWlLk6GJQsqaUBKTNV-1" vertex="1">
          <mxGeometry x="-368" y="1141" width="260" height="26" as="geometry" />
        </mxCell>
        <mxCell id="sIy3QoAhm_caEG3YGeSg-133" value="+ PegarDatasPorId(id: int): string" style="text;strokeColor=none;fillColor=none;align=left;verticalAlign=top;spacingLeft=4;spacingRight=4;overflow=hidden;rotatable=0;points=[[0,0.5],[1,0.5]];portConstraint=eastwest;whiteSpace=wrap;html=1;" parent="WIyWlLk6GJQsqaUBKTNV-1" vertex="1">
          <mxGeometry x="1439" y="1777" width="240" height="26" as="geometry" />
        </mxCell>
        <mxCell id="sIy3QoAhm_caEG3YGeSg-134" value="+ MarcarData(data string, id: int): bool" style="text;strokeColor=none;fillColor=none;align=left;verticalAlign=top;spacingLeft=4;spacingRight=4;overflow=hidden;rotatable=0;points=[[0,0.5],[1,0.5]];portConstraint=eastwest;whiteSpace=wrap;html=1;" parent="WIyWlLk6GJQsqaUBKTNV-1" vertex="1">
          <mxGeometry x="1439" y="1792" width="230" height="26" as="geometry" />
        </mxCell>
        <mxCell id="89PEjHrQ4XXDXBhaza7A-2" style="edgeStyle=orthogonalEdgeStyle;rounded=0;orthogonalLoop=1;jettySize=auto;html=1;entryX=1;entryY=0.5;entryDx=0;entryDy=0;endArrow=diamondThin;endFill=1;" parent="WIyWlLk6GJQsqaUBKTNV-1" source="-nYd4kfD91HYhXSvi_44-38" target="-nYd4kfD91HYhXSvi_44-33" edge="1">
          <mxGeometry relative="1" as="geometry">
            <Array as="points">
              <mxPoint x="1100" y="1929" />
              <mxPoint x="1100" y="1587" />
            </Array>
          </mxGeometry>
        </mxCell>
        <mxCell id="89PEjHrQ4XXDXBhaza7A-7" style="edgeStyle=orthogonalEdgeStyle;rounded=0;orthogonalLoop=1;jettySize=auto;html=1;endArrow=diamondThin;endFill=1;" parent="WIyWlLk6GJQsqaUBKTNV-1" source="-nYd4kfD91HYhXSvi_44-38" target="-nYd4kfD91HYhXSvi_44-35" edge="1">
          <mxGeometry relative="1" as="geometry" />
        </mxCell>
        <mxCell id="89PEjHrQ4XXDXBhaza7A-9" style="edgeStyle=orthogonalEdgeStyle;rounded=0;orthogonalLoop=1;jettySize=auto;html=1;entryX=0.43;entryY=1.008;entryDx=0;entryDy=0;entryPerimeter=0;endArrow=diamondThin;endFill=1;" parent="WIyWlLk6GJQsqaUBKTNV-1" source="-nYd4kfD91HYhXSvi_44-37" target="sIy3QoAhm_caEG3YGeSg-123" edge="1">
          <mxGeometry relative="1" as="geometry">
            <mxPoint x="460" y="1940" as="targetPoint" />
          </mxGeometry>
        </mxCell>
        <mxCell id="iZ4XpVOLC9GQ_P3X_HaN-0" value="" style="endArrow=none;html=1;rounded=0;" edge="1" parent="WIyWlLk6GJQsqaUBKTNV-1" source="sIy3QoAhm_caEG3YGeSg-119">
          <mxGeometry width="50" height="50" relative="1" as="geometry">
            <mxPoint x="150" y="1300" as="sourcePoint" />
            <mxPoint x="150" y="1440" as="targetPoint" />
          </mxGeometry>
        </mxCell>
      </root>
    </mxGraphModel>
  </diagram>
</mxfile>
